<svg xmlns="http://www.w3.org/2000/svg" class="icon" viewBox="0 0 512 384" fill="none"><path d="M464 0H48C21.5 0 0 21.5 0 48V336C0 362.5 21.5 384 48 384H464C490.5 384 512 362.5 512 336V48C512 21.5 490.5 0 464 0ZM218.1 223.7C220.9 221.2 225.2 221.6 227.3 224.6L246.8 252.3C248.5 254.7 248.3 257.9 246.3 260C192.7 316.8 73.5 292.1 73.5 192.1C73.5 94.8 195.2 72.6 246 122C248.1 124 248.5 125.2 247 127.7L229.5 158.2C227.6 161.3 223.3 162.2 220.4 159.9C179.6 127.9 125.8 145 125.8 191.1C125.9 239.1 176.9 261.6 218.1 223.7V223.7ZM408.5 223.7C411.3 221.2 415.6 221.6 417.7 224.6L437.2 252.3C438.9 254.7 438.7 257.9 436.7 260C383.2 316.9 264 292.1 264 192.1C264 94.8 385.7 72.6 436.5 122C438.6 124 439 125.2 437.5 127.7L420 158.2C418.1 161.3 413.8 162.2 410.9 159.9C370.1 127.9 316.3 145 316.3 191.1C316.3 239.1 367.3 261.6 408.5 223.7V223.7Z"/></svg>