<svg xmlns="http://www.w3.org/2000/svg" class="icon" viewBox="0 0 448 448"><path d="M0 148V24C0 10.7 10.7 0 24 0H148C154.6 0 160 5.4 160 12V52C160 58.6 154.6 64 148 64H64V148C64 154.6 58.6 160 52 160H12C5.4 160 0 154.6 0 148ZM288 12V52C288 58.6 293.4 64 300 64H384V148C384 154.6 389.4 160 396 160H436C442.6 160 448 154.6 448 148V24C448 10.7 437.3 0 424 0H300C293.4 0 288 5.4 288 12ZM436 288H396C389.4 288 384 293.4 384 300V384H300C293.4 384 288 389.4 288 396V436C288 442.6 293.4 448 300 448H424C437.3 448 448 437.3 448 424V300C448 293.4 442.6 288 436 288ZM160 436V396C160 389.4 154.6 384 148 384H64V300C64 293.4 58.6 288 52 288H12C5.4 288 0 293.4 0 300V424C0 437.3 10.7 448 24 448H148C154.6 448 160 442.6 160 436Z"></path></svg>